<?xml version="1.0" standalone="no"?><svg xmlns="http://www.w3.org/2000/svg" viewBox="0 0 1440 320"><path fill="#150c20" fill-opacity="1" d="M0,224L18.5,208C36.9,192,74,160,111,149.3C147.7,139,185,149,222,133.3C258.5,117,295,75,332,58.7C369.2,43,406,53,443,90.7C480,128,517,192,554,213.3C590.8,235,628,213,665,176C701.5,139,738,85,775,74.7C812.3,64,849,96,886,101.3C923.1,107,960,85,997,106.7C1033.8,128,1071,192,1108,218.7C1144.6,245,1182,235,1218,245.3C1255.4,256,1292,288,1329,272C1366.2,256,1403,192,1422,160L1440,128L1440,0L1421.5,0C1403.1,0,1366,0,1329,0C1292.3,0,1255,0,1218,0C1181.5,0,1145,0,1108,0C1070.8,0,1034,0,997,0C960,0,923,0,886,0C849.2,0,812,0,775,0C738.5,0,702,0,665,0C627.7,0,591,0,554,0C516.9,0,480,0,443,0C406.2,0,369,0,332,0C295.4,0,258,0,222,0C184.6,0,148,0,111,0C73.8,0,37,0,18,0L0,0Z"></path></svg>